<svg xmlns="http://www.w3.org/2000/svg" viewBox="0 0 64 64"><g id="_21-Stenographer" data-name="21-Stenographer"><polygon points="34 54 34 58 30 58 30 54 32 54 34 54" style="fill:#004c56"/><path d="M63,14V56a2.006,2.006,0,0,1-2,2H34V54H58V12h3A2.006,2.006,0,0,1,63,14Z" style="fill:#008cbe"/><path d="M30,54v4H3a2.006,2.006,0,0,1-2-2V14a2.006,2.006,0,0,1,2-2H6V54Z" style="fill:#00c8ff"/><path d="M10,50a59.11,59.11,0,0,1,22,4H6V10h4Z" style="fill:#9196aa"/><path d="M58,12V54H32a59.11,59.11,0,0,1,22-4V10h4Z" style="fill:#afb4c8"/><path d="M54,50a59.11,59.11,0,0,0-22,4V10A59.11,59.11,0,0,1,54,6V50Z" style="fill:#cdd2e1"/><path d="M32,10V54a59.11,59.11,0,0,0-22-4V6A59.11,59.11,0,0,1,32,10Z" style="fill:#e9edf5"/><polygon points="47 42.67 43 44 44.33 40 47 42.67" style="fill:#b24535"/><rect x="42.351" y="31.447" width="22.627" height="3.776" transform="translate(-7.853 47.71) rotate(-45)" style="fill:#ff7564"/><path d="M59,26H57V11H54V9h4a1,1,0,0,1,1,1Z"/><path d="M58,55H6a1,1,0,0,1-1-1V10A1,1,0,0,1,6,9h4v2H7V53H57V32h2V54A1,1,0,0,1,58,55Z"/><path d="M64,23H62V14a1,1,0,0,0-1-1H58V11h3a3,3,0,0,1,3,3Z"/><path d="M61,59H3a3,3,0,0,1-3-3V14a3,3,0,0,1,3-3H6v2H3a1,1,0,0,0-1,1V56a1,1,0,0,0,1,1H61a1,1,0,0,0,1-1V31h2V56A3,3,0,0,1,61,59Z"/><path d="M32,55a1.007,1.007,0,0,1-.406-.086A58.743,58.743,0,0,0,10,51a1,1,0,0,1-1-1V6a1,1,0,0,1,1-1A60.9,60.9,0,0,1,32,8.915,60.9,60.9,0,0,1,54,5a1,1,0,0,1,1,1V30H53V7.008a58.362,58.362,0,0,0-20.594,3.906,1.015,1.015,0,0,1-.812,0A58.362,58.362,0,0,0,11,7.008v42a60.547,60.547,0,0,1,21,3.907,60.547,60.547,0,0,1,21-3.907V36h2V50a1,1,0,0,1-1,1,58.743,58.743,0,0,0-21.594,3.914A1.007,1.007,0,0,1,32,55Z"/><rect x="31" y="10" width="2" height="44"/><rect x="33" y="54" width="2" height="4"/><rect x="29" y="54" width="2" height="4"/><path d="M47,43.667h0a1,1,0,0,1-.707-.293l-2.667-2.667a1,1,0,0,1,0-1.414l16-16A1,1,0,0,1,60.333,23h0a1,1,0,0,1,.708.293l2.666,2.667a1,1,0,0,1,0,1.414l-16,16A1,1,0,0,1,47,43.667ZM45.748,40,47,41.253,61.586,26.667l-1.253-1.253Z"/><path d="M43,45a1,1,0,0,1-.949-1.316l1.334-4,1.9.632-.7,2.1,2.1-.7.632,1.9-4,1.333A.987.987,0,0,1,43,45Z"/><path d="M22,18a1,1,0,0,1-.949-.684A3.436,3.436,0,0,0,18,15c-2.445,0-3.31.724-3.318.731l-1.389-1.438C13.509,14.077,14.75,13,18,13a5.125,5.125,0,0,1,4.524,2.771l2.16-.719a.991.991,0,0,1,.632,0l3,1-.632,1.9L25,17.054l-2.684.894A1,1,0,0,1,22,18Z"/><path d="M43,17a1,1,0,0,1-.707-.293l-1.49-1.49L37.447,16.9l-.894-1.79,4-2a1,1,0,0,1,1.154.188l1.563,1.562,2.414-.8A1,1,0,0,1,46,14h3.382l.723-1.447,1.79.894-1,2A1,1,0,0,1,50,16H46.162l-2.846.948A.987.987,0,0,1,43,17Z"/><path d="M27.051,25.316a7.322,7.322,0,0,0-1.169-2.3,2.8,2.8,0,0,0-1.178.7,1.008,1.008,0,0,1-.508.27l-5,1a.993.993,0,0,1-1.028-.425l-1.609-2.414-3.316.829-.486-1.94,4-1a1,1,0,0,1,1.075.415l1.628,2.443,4.073-.815A4.119,4.119,0,0,1,26,21c1.422,0,2.389,2,2.949,3.684Z"/><path d="M36.555,24.832l-1.11-1.664,3-2a.993.993,0,0,1,.871-.116l2.724.907,7.717-1.929.486,1.94-8,2a.985.985,0,0,1-.559-.022L39.148,23.1Z"/><path d="M22,33a1,1,0,0,1-.243-.03l-4-1a1,1,0,0,1-.589-.415L15.592,29.19l-2.276.758-.632-1.9,3-1a.994.994,0,0,1,1.148.393l1.786,2.679,3.2.8,2.632-1.755a1,1,0,0,1,.8-.138l4,1-.486,1.94-3.57-.893-2.632,1.755A1,1,0,0,1,22,33Z"/><path d="M43,31a.987.987,0,0,1-.316-.052l-2.724-.907-3.717.929-.486-1.94,4-1a.977.977,0,0,1,.559.022l2.414.8,1.563-1.562a.953.953,0,0,1,.152-.125l3-2a1,1,0,0,1,1.262.125l2,2-1.414,1.414-1.42-1.42-2.236,1.49-1.93,1.93A1,1,0,0,1,43,31Z"/><path d="M21,40a1,1,0,0,1-.707-.293L18,37.414l-.293.293A1,1,0,0,1,17,38H13V36h3.586l.707-.707a1,1,0,0,1,1.414,0L21,37.586l1.293-1.293a1,1,0,0,1,.95-.263l3.641.91,1.669-.835.894,1.79-2,1a1.01,1.01,0,0,1-.69.075l-3.45-.863-1.6,1.6A1,1,0,0,1,21,40Z"/><path d="M42,39a1,1,0,0,1-.832-.445l-1.323-1.986-1.138,1.138A1,1,0,0,1,38,38H36V36h1.586l1.707-1.707a1.012,1.012,0,0,1,.806-.288,1,1,0,0,1,.733.44L42,36.2l1.168-1.752,1.664,1.11-2,3A1,1,0,0,1,42,39Z"/><path d="M23,47a1,1,0,0,1-.555-.168L19.852,45.1l-2.536.844a1,1,0,0,1-1.211-.5L15.382,44H13V42h3a1,1,0,0,1,.895.553l.611,1.224,2.178-.725a.987.987,0,0,1,.871.116l2.318,1.545,2.42-2.42a1,1,0,0,1,1.023-.241l3,1-.632,1.9-2.414-.8-2.563,2.562A1,1,0,0,1,23,47Z"/><rect x="36" y="43" width="4" height="2"/></g></svg>